<?xml version="1.0" encoding="UTF-8"?>
<svg version="1.1" xmlns="http://www.w3.org/2000/svg" width="150" height="144">
<path d="M0 0 C49.5 0 99 0 150 0 C150 47.52 150 95.04 150 144 C100.5 144 51 144 0 144 C0 96.48 0 48.96 0 0 Z " fill="#FBFCFC" transform="translate(0,0)"/>
<path d="M0 0 C7.5854838 5.42027866 13.92996147 12.85915076 16.1953125 22.0546875 C17.89470462 32.88831229 16.28151124 41.96755382 10.42578125 51.18359375 C5.15252612 58.29740688 -1.60015117 63.87829173 -10.3984375 65.64453125 C-20.76045277 66.78298016 -30.67089597 67.00946558 -39.3984375 60.64453125 C-40.4709375 59.90203125 -41.5434375 59.15953125 -42.6484375 58.39453125 C-49.49014336 51.55282539 -54.67529587 43.07884806 -54.96801758 33.23730469 C-54.96451294 32.10856934 -54.96451294 32.10856934 -54.9609375 30.95703125 C-54.95924561 30.16973633 -54.95755371 29.38244141 -54.95581055 28.57128906 C-54.73166604 21.22774521 -52.51890075 15.73650801 -48.3984375 9.64453125 C-48.00398438 9.03351562 -47.60953125 8.4225 -47.203125 7.79296875 C-36.10357549 -7.34278059 -15.40006063 -8.70329159 0 0 Z " fill="#F7FAFC" transform="translate(93.3984375,44.35546875)"/>
<path d="M0 0 C0.125 6.625 0.125 6.625 -1 10 C-0.236875 9.79375 0.52625 9.5875 1.3125 9.375 C4 9 4 9 7 11 C7.33 9.68 7.66 8.36 8 7 C11.30553882 8.06943903 13.57305076 9.39074569 16.125 11.6875 C17.07375 12.450625 18.0225 13.21375 19 14 C19.99 13.67 20.98 13.34 22 13 C27.06756536 19.51544118 27.98767905 26.14935568 27.546875 34.17578125 C26.52786794 41.30155203 23.07849067 45.61385912 17.5 49.9375 C11.7165412 53.5995154 5.78580989 55.17209444 -1 54 C-11.77789827 50.11244963 -11.77789827 50.11244963 -14.68359375 45.08984375 C-15.11800781 44.07019531 -15.55242188 43.05054688 -16 42 C-16.45761719 41.18917969 -16.91523437 40.37835938 -17.38671875 39.54296875 C-20.62460219 33.67977442 -21.53896776 29.68320017 -21 23 C-20.67 23 -20.34 23 -20 23 C-19.84144531 22.33613281 -19.68289062 21.67226562 -19.51953125 20.98828125 C-17.99738146 15.22765912 -16.65705759 11.77599264 -12 8 C-13.875 12.75 -13.875 12.75 -15 15 C-15.96928843 22.97585912 -14.68054622 29.39796639 -10 36 C-7.37231218 38.3587119 -6.59946393 39 -3 39 C-3.680625 38.443125 -4.36125 37.88625 -5.0625 37.3125 C-7 35 -7 35 -6.8984375 32.59375 C-5.76220049 29.31348315 -4.33962916 28.22702365 -1.5625 26.1875 C-0.75941406 25.58292969 0.04367188 24.97835937 0.87109375 24.35546875 C3 23 3 23 5 23 C5.33 23.66 5.66 24.32 6 25 C6.99 25.33 7.98 25.66 9 26 C9 24.68 9 23.36 9 22 C8.34 22 7.68 22 7 22 C7.33 20.02 7.66 18.04 8 16 C7.34 16.33 6.68 16.66 6 17 C3.94140625 17.203125 3.94140625 17.203125 1.5625 17.25 C0.78003906 17.27578125 -0.00242187 17.3015625 -0.80859375 17.328125 C-3 17 -3 17 -4.7265625 15.7578125 C-7.06429577 12.53088007 -7.23902911 8.89958928 -7 5 C-4.14285714 0 -4.14285714 0 0 0 Z " fill="#E8F2F7" transform="translate(71,52)"/>
<path d="M0 0 C9.14770193 6.35065332 15.80865645 14.47810843 18.6328125 25.4609375 C20.64421754 39.3695894 18.29843536 49.79371127 10 61 C4.02048156 68.66492192 -5.35029816 73.87660479 -14.89453125 75.74609375 C-26.9079304 77.19483391 -37.05055167 74.92023402 -46.9375 67.6875 C-54.43756805 61.34128858 -61.30916838 52.02222269 -62.17700195 41.94458008 C-62.70617201 23.16220552 -62.70617201 23.16220552 -58 16 C-57.5875 15.25878906 -57.175 14.51757812 -56.75 13.75390625 C-51.64244834 5.14942292 -43.82763098 -1.34339701 -34.2421875 -4.37109375 C-22.55504591 -6.6381176 -10.42186287 -6.16995743 0 0 Z M-48 10 C-54.21864234 17.36883838 -57.59336724 25.0764696 -57.5625 34.6875 C-57.56008301 35.47552002 -57.55766602 36.26354004 -57.55517578 37.07543945 C-57.25650392 46.64367561 -53.11640828 54.56616825 -46.63671875 61.5390625 C-37.08744801 70.06275523 -27.48693347 70.77269427 -15.21386719 70.18212891 C-5.86351165 69.41290027 0.95165499 63.84993291 7 57 C13.49022854 47.49504056 15.51670459 37.72747809 13.5390625 26.34765625 C11.05571522 16.86711279 4.99660005 9.55672032 -3 4 C-19.16934191 -4.146386 -34.49863204 -2.20642543 -48 10 Z " fill="#136FAF" transform="translate(96,40)"/>
<path d="M0 0 C0.125 6.625 0.125 6.625 -1 10 C-0.236875 9.79375 0.52625 9.5875 1.3125 9.375 C4 9 4 9 7 11 C7.33 9.68 7.66 8.36 8 7 C13.6131052 8.36075278 16.61031425 12.62621194 20 17 C21.85041126 20.70082251 21.4881035 24.42427456 20.28125 28.3203125 C18.33772244 33.06941615 16.49378609 36.23459318 12 39 C7.65359568 40.44880144 3.53718694 40.66123344 -1 40 C-3.51786838 38.58524488 -4.98305102 37.12310419 -7 35 C-6.6823628 31.77347475 -6.31796069 30.32169408 -4.00390625 27.98046875 C-3.19824219 27.38878906 -2.39257812 26.79710938 -1.5625 26.1875 C-0.75941406 25.58292969 0.04367188 24.97835937 0.87109375 24.35546875 C3 23 3 23 5 23 C5.33 23.66 5.66 24.32 6 25 C6.99 25.33 7.98 25.66 9 26 C9 24.68 9 23.36 9 22 C8.34 22 7.68 22 7 22 C7.33 20.02 7.66 18.04 8 16 C7.34 16.33 6.68 16.66 6 17 C3.94140625 17.203125 3.94140625 17.203125 1.5625 17.25 C0.78003906 17.27578125 -0.00242187 17.3015625 -0.80859375 17.328125 C-3 17 -3 17 -4.7265625 15.7578125 C-7.06429577 12.53088007 -7.23902911 8.89958928 -7 5 C-4.14285714 0 -4.14285714 0 0 0 Z " fill="#6DADD8" transform="translate(71,52)"/>
<path d="M0 0 C0.125 6.625 0.125 6.625 -1 10 C-0.236875 9.79375 0.52625 9.5875 1.3125 9.375 C4 9 4 9 7 11 C7.33 9.68 7.66 8.36 8 7 C8.66 7.33 9.32 7.66 10 8 C10 10.97 10 13.94 10 17 C11.32 17.66 12.64 18.32 14 19 C15 20 15 20 15.375 23.25 C15 27 15 27 12.875 29.9375 C10 32 10 32 7 32.6875 C2.65681315 31.69218635 1.54022005 29.58619301 -1 26 C2.75 23 2.75 23 5 23 C5.33 23.66 5.66 24.32 6 25 C6.99 25.33 7.98 25.66 9 26 C9 24.68 9 23.36 9 22 C8.34 22 7.68 22 7 22 C7.33 20.02 7.66 18.04 8 16 C7.34 16.33 6.68 16.66 6 17 C3.94140625 17.203125 3.94140625 17.203125 1.5625 17.25 C0.78003906 17.27578125 -0.00242187 17.3015625 -0.80859375 17.328125 C-3 17 -3 17 -4.7265625 15.7578125 C-7.06429577 12.53088007 -7.23902911 8.89958928 -7 5 C-4.14285714 0 -4.14285714 0 0 0 Z " fill="#8CBFE0" transform="translate(71,52)"/>
<path d="M0 0 C0 3 0 3 -0.97265625 4.8671875 C-3.34694531 9.79631992 -2.74215084 15.71621395 -1.08984375 20.80078125 C1.32084405 26.03298146 3.55114275 29.66477547 9 32 C13.31327834 32.88530295 17.62570265 33.50675579 22 34 C18.00341592 36.21050004 14.50288616 36.64677819 10 36 C3.67704207 34.02259555 -0.12246771 30.22879354 -4 25 C-1.63501386 30.04030984 1.35266385 33.0812933 6.25 35.8125 C12.87070771 37.90905744 17.84377401 37.81759717 24.25 35 C29.18251438 32.33398366 31.63892392 29.00796663 34 24 C34.495 25.485 34.495 25.485 35 27 C31.89111104 32.82916681 27.32867818 37.07287053 21.625 40.375 C15.32228319 41.87564686 9.00170988 41.44514106 3 39 C-2.84086314 35.35717838 -6.2096963 30.64039916 -8 24 C-8.28575386 20.90823697 -8.19777058 18.11488656 -8 15 C-7.67 15 -7.34 15 -7 15 C-6.74476562 14.00419922 -6.74476562 14.00419922 -6.484375 12.98828125 C-5.06868431 7.83004654 -3.8098499 3.94122403 0 0 Z " fill="#4394C8" transform="translate(58,60)"/>
<path d="M0 0 C3.52866132 3.37524126 4.18555994 5.46430179 4.39428711 10.40893555 C4.53498174 17.42061535 4.38372652 22.55497601 -0.22265625 28.234375 C-5.75094156 33.72621008 -11.33642682 36.90992845 -19.25 37.4375 C-24.86504627 37.351409 -29.24673902 34.77852417 -34 32 C-33.34 31.67 -32.68 31.34 -32 31 C-31.41476563 31.30035156 -30.82953125 31.60070312 -30.2265625 31.91015625 C-25.06392334 34.43713226 -18.53264562 33.78250016 -13.16796875 32.125 C-6.43593112 29.05672498 -2.97787547 25.21946767 0.11328125 18.625 C1.08356815 15.75260881 1.2342041 13.52302911 1.1875 10.5 C1.17783203 9.12328125 1.17783203 9.12328125 1.16796875 7.71875 C1.00378988 5.06134313 0.58734999 2.59373754 0 0 Z " fill="#3F92C7" transform="translate(94,69)"/>
<path d="M0 0 C0.125 6.625 0.125 6.625 -1 10 C-0.2575 9.773125 0.485 9.54625 1.25 9.3125 C4 9 4 9 6.3125 10.4375 C7.1478125 11.2109375 7.1478125 11.2109375 8 12 C7.125 15.875 7.125 15.875 6 17 C4.0390625 17.203125 4.0390625 17.203125 1.625 17.25 C0.83351563 17.27578125 0.04203125 17.3015625 -0.7734375 17.328125 C-3 17 -3 17 -4.73046875 15.7578125 C-7.06268096 12.52859559 -7.23897444 8.89869735 -7 5 C-4.14285714 0 -4.14285714 0 0 0 Z " fill="#69ABD7" transform="translate(71,52)"/>
<path d="M0 0 C0.680625 0.721875 1.36125 1.44375 2.0625 2.1875 C6.13549494 6.26049494 11.04305129 10.81085331 17.04296875 11.09765625 C17.75066406 11.08605469 18.45835938 11.07445313 19.1875 11.0625 C20.445625 11.041875 21.70375 11.02125 23 11 C20.03 10.34 17.06 9.68 14 9 C17.28032215 6.81311857 18.10540609 6.79427835 21.875 6.9375 C25.41419154 7.01511385 28.55228469 6.91939075 32 6 C32.66 6.99 33.32 7.98 34 9 C27.67323603 12.69831714 22.4139438 15.27017287 15 14 C8.7388474 11.91294913 3.50600653 8.72032644 0 3 C0 2.01 0 1.02 0 0 Z " fill="#DBEBF3" transform="translate(53,84)"/>
<path d="M0 0 C1.2065625 1.2375 1.2065625 1.2375 2.4375 2.5 C5.83477623 5.33507922 8.47915519 5.55033905 12.80859375 5.30859375 C15.69799597 4.90170823 18.30466648 4.10577786 21 3 C20.00147198 5.89573124 19.03905844 6.97265909 16.5 8.75 C11.89321184 10.39528149 7.83609124 10.87644372 3 10 C0.49503691 8.57425026 -0.98707396 7.11886951 -3 5 C-2.625 3.0625 -2.625 3.0625 -2 1 C-1.34 0.67 -0.68 0.34 0 0 Z " fill="#187EBF" transform="translate(67,82)"/>
<path d="M0 0 C9.24 0 18.48 0 28 0 C27.34 1.65 26.68 3.3 26 5 C25.34 5 24.68 5 24 5 C24 4.01 24 3.02 24 2 C22.68 2 21.36 2 20 2 C19.67 2.66 19.34 3.32 19 4 C19.99 3.67 20.98 3.34 22 3 C22 3.66 22 4.32 22 5 C19.03 5 16.06 5 13 5 C13 3.68 13 2.36 13 1 C12.67 2.32 12.34 3.64 12 5 C7.71 5 3.42 5 -1 5 C-0.67 3.35 -0.34 1.7 0 0 Z " fill="#71A5C5" transform="translate(114,122)"/>
<path d="M0 0 C0.99 0 1.98 0 3 0 C3 3.33333333 3 6.66666667 3 10 C2.01 10.33 1.02 10.66 0 11 C-0.33 13.31 -0.66 15.62 -1 18 C-2.32 18 -3.64 18 -5 18 C-5 18.66 -5 19.32 -5 20 C-4.34 20.33 -3.68 20.66 -3 21 C-4.98 20.67 -6.96 20.34 -9 20 C-10.125 16.25 -10.125 16.25 -9 14 C-7.68 14 -6.36 14 -5 14 C-5 14.66 -5 15.32 -5 16 C-4.34 15.34 -3.68 14.68 -3 14 C-3.495 13.38125 -3.99 12.7625 -4.5 12.125 C-6 10 -6 10 -6 8 C-3.69 8 -1.38 8 1 8 C1 7.34 1 6.68 1 6 C0.01 5.67 -0.98 5.34 -2 5 C-1.125 1.125 -1.125 1.125 0 0 Z " fill="#4F4F4F" transform="translate(35,40)"/>
<path d="M0 0 C0.495 1.485 0.495 1.485 1 3 C-2.10888896 8.82916681 -6.67132182 13.07287053 -12.375 16.375 C-18.87454524 17.92251077 -24.75115052 17.12726791 -31 15 C-31.33 13.35 -31.66 11.7 -32 10 C-30.865625 10.495 -29.73125 10.99 -28.5625 11.5 C-21.79958449 13.97220813 -16.379678 13.91154998 -9.75 11 C-4.81748562 8.33398366 -2.36107608 5.00796663 0 0 Z " fill="#5CA2CF" transform="translate(92,84)"/>
<path d="M0 0 C2.5 0.125 2.5 0.125 3.5 1.125 C3.54063832 2.79117115 3.542721 4.45888095 3.5 6.125 C4.16 6.125 4.82 6.125 5.5 6.125 C5.5 6.785 5.5 7.445 5.5 8.125 C3.85 8.455 2.2 8.785 0.5 9.125 C0.5 9.785 0.5 10.445 0.5 11.125 C3.47 11.62 3.47 11.62 6.5 12.125 C6.17 13.115 5.84 14.105 5.5 15.125 C2.4375 16.3125 2.4375 16.3125 -0.5 17.125 C-0.17 15.475 0.16 13.825 0.5 12.125 C-0.16 12.125 -0.82 12.125 -1.5 12.125 C-2.91404314 8.32475907 -3.84892324 5.19577118 -3.5 1.125 C-2.5 0.125 -2.5 0.125 0 0 Z " fill="#969696" transform="translate(119.5,53.875)"/>
<path d="M0 0 C0.99 0.33 1.98 0.66 3 1 C-0.7963603 6.38838236 -4.56203476 9.29867585 -11 11 C-18.75580223 11.7975118 -25.39516285 11.40322477 -32 7 C-31.67 6.01 -31.34 5.02 -31 4 C-29.9171875 4.7115625 -29.9171875 4.7115625 -28.8125 5.4375 C-23.60874823 8.3284732 -17.86261765 8.71328515 -12 8 C-7.14363082 6.34986047 -3.35733733 3.91689355 0 0 Z " fill="#E7F2F7" transform="translate(89,92)"/>
<path d="M0 0 C2.0625 0.4375 2.0625 0.4375 4 1 C4.33 2.32 4.66 3.64 5 5 C6.32 5.33 7.64 5.66 9 6 C9.33 7.32 9.66 8.64 10 10 C9.34 10 8.68 10 8 10 C8 9.01 8 8.02 8 7 C6.70366379 8.06645115 6.70366379 8.06645115 6.9375 10.5625 C6.958125 11.366875 6.97875 12.17125 7 13 C5.68 12.67 4.36 12.34 3 12 C2.67 10.68 2.34 9.36 2 8 C0.68 7.67 -0.64 7.34 -2 7 C-1.34 6.34 -0.68 5.68 0 5 C-0.40929986 2.94603274 -0.40929986 2.94603274 -1 1 C-0.67 0.67 -0.34 0.34 0 0 Z " fill="#7E7E7E" transform="translate(105,34)"/>
<path d="M0 0 C0.66 0.33 1.32 0.66 2 1 C1.96519531 2.15628906 1.96519531 2.15628906 1.9296875 3.3359375 C1.91164063 4.33882812 1.89359375 5.34171875 1.875 6.375 C1.85179688 7.37273437 1.82859375 8.37046875 1.8046875 9.3984375 C1.72783152 12.16262173 1.72783152 12.16262173 4 14 C4.25 17 4.25 17 4 20 C2 22 2 22 -0.875 22.375 C-4.62568199 21.92491816 -5.66488517 20.87398748 -8 18 C-6.35 17.34 -4.7 16.68 -3 16 C-2.67 16.66 -2.34 17.32 -2 18 C-1.01 18.33 -0.02 18.66 1 19 C1 17.68 1 16.36 1 15 C0.34 15 -0.32 15 -1 15 C-0.67 10.05 -0.34 5.1 0 0 Z " fill="#C7E0EF" transform="translate(79,59)"/>
<path d="M0 0 C0.99 0.33 1.98 0.66 3 1 C2.01 1.804375 2.01 1.804375 1 2.625 C-1.28566853 4.88545719 -1.28566853 4.88545719 -1.3125 8.125 C-1.17528074 10.93939173 -1.17528074 10.93939173 0 13 C1.8871875 13.0309375 1.8871875 13.0309375 3.8125 13.0625 C4.52019531 13.07410156 5.22789063 13.08570312 5.95703125 13.09765625 C8.20305461 13.08263217 8.20305461 13.08263217 11 12 C10.125 15.875 10.125 15.875 9 17 C7.0390625 17.203125 7.0390625 17.203125 4.625 17.25 C3.83351563 17.27578125 3.04203125 17.3015625 2.2265625 17.328125 C0 17 0 17 -1.73046875 15.7578125 C-4.05665492 12.53693935 -4.25892552 8.89069658 -4 5 C-2.0625 1.9375 -2.0625 1.9375 0 0 Z " fill="#4897CA" transform="translate(68,52)"/>
<path d="M0 0 C0 0.66 0 1.32 0 2 C-0.66 2 -1.32 2 -2 2 C-1.79375 3.11375 -1.5875 4.2275 -1.375 5.375 C-1.25125 6.57125 -1.1275 7.7675 -1 9 C-1.66 9.66 -2.32 10.32 -3 11 C-2.67 11.99 -2.34 12.98 -2 14 C-4.31 14 -6.62 14 -9 14 C-9 12.02 -9 10.04 -9 8 C-7.02 8 -5.04 8 -3 8 C-3.825 7.21625 -4.65 6.4325 -5.5 5.625 C-8 3 -8 3 -8 1 C-5.23735711 0.40267181 -2.83967231 0 0 0 Z " fill="#4F4F4F" transform="translate(31,62)"/>
<path d="M0 0 C3.01418996 2.88313822 3.94353661 4.17433863 4.23828125 8.484375 C4.26889969 9.90613555 4.29338761 11.32803823 4.3125 12.75 C4.34150391 13.45382813 4.37050781 14.15765625 4.40039062 14.8828125 C4.46236979 20.0127801 3.42604473 22.95739434 0 27 C-0.66 27 -1.32 27 -2 27 C-1.69078116 25.54096742 -1.37751201 24.08279278 -1.0625 22.625 C-0.88847656 21.81289062 -0.71445313 21.00078125 -0.53515625 20.1640625 C0 18 0 18 1 16 C1.09683564 14.23132545 1.12979382 12.45881697 1.125 10.6875 C1.12757812 9.74261719 1.13015625 8.79773438 1.1328125 7.82421875 C1.005363 5.11404264 0.60596226 2.64026415 0 0 Z " fill="#328BC4" transform="translate(94,69)"/>
<path d="M0 0 C1.23556641 0.01740234 1.23556641 0.01740234 2.49609375 0.03515625 C3.32238281 0.04417969 4.14867187 0.05320312 5 0.0625 C5.63808594 0.07410156 6.27617187 0.08570312 6.93359375 0.09765625 C6.93359375 1.08765625 6.93359375 2.07765625 6.93359375 3.09765625 C7.59359375 2.10765625 8.25359375 1.11765625 8.93359375 0.09765625 C9.59359375 0.09765625 10.25359375 0.09765625 10.93359375 0.09765625 C10.93359375 1.74765625 10.93359375 3.39765625 10.93359375 5.09765625 C4.49859375 5.59265625 4.49859375 5.59265625 -2.06640625 6.09765625 C-2.39640625 4.44765625 -2.72640625 2.79765625 -3.06640625 1.09765625 C-2.06640625 0.09765625 -2.06640625 0.09765625 0 0 Z " fill="#94BCD4" transform="translate(10.06640625,121.90234375)"/>
<path d="M0 0 C0.33 0 0.66 0 1 0 C1.40528634 10.33480176 1.40528634 10.33480176 -1 14 C-3.5 14.75 -3.5 14.75 -6 15 C-6.99 15.495 -6.99 15.495 -8 16 C-11.05913068 16.4207056 -13.9480364 16.49462858 -17 16 C-20.0625 13.5 -20.0625 13.5 -22 11 C-21.67 10.34 -21.34 9.68 -21 9 C-20.319375 9.825 -19.63875 10.65 -18.9375 11.5 C-16.1923469 14.27243768 -16.1923469 14.27243768 -12.5625 14.5625 C-8.21721214 13.87640192 -6.19626399 13.04760055 -3 10 C-2.17442681 7.63886067 -1.70035506 5.39695639 -1.32421875 2.92578125 C-1 1 -1 1 0 0 Z " fill="#3A90CA" transform="translate(90,72)"/>
<path d="M0 0 C0.66 0 1.32 0 2 0 C4.08901197 3.39464446 4.34361606 6.04841529 4 10 C3.34 10.66 2.68 11.32 2 12 C-0.125 11.625 -0.125 11.625 -2 11 C-2.28571429 3.57142857 -2.28571429 3.57142857 0 0 Z " fill="#1A73B0" transform="translate(78,43)"/>
<path d="M0 0 C3.96 0 7.92 0 12 0 C12.33 0.66 12.66 1.32 13 2 C12.01 2.495 12.01 2.495 11 3 C11.33 3.66 11.66 4.32 12 5 C10.68 5 9.36 5 8 5 C8 5.66 8 6.32 8 7 C9.32 7.33 10.64 7.66 12 8 C10.02 8 8.04 8 6 8 C6 6.02 6 4.04 6 2 C5.34 2 4.68 2 4 2 C4 3.65 4 5.3 4 7 C3.34 7 2.68 7 2 7 C2 5.02 2 3.04 2 1 C1.34 0.67 0.68 0.34 0 0 Z " fill="#484848" transform="translate(73,23)"/>
<path d="M0 0 C4.43458973 1.3937282 6.87378374 3.60582235 10 7 C9.34 8.32 8.68 9.64 8 11 C5.28775382 9.38731308 2.62647188 7.75098126 0 6 C-0.1875 2.875 -0.1875 2.875 0 0 Z " fill="#3F93CA" transform="translate(80,60)"/>
<path d="M0 0 C9 0 9 0 12 1 C12 1.66 12 2.32 12 3 C10.02 3.99 10.02 3.99 8 5 C8 4.34 8 3.68 8 3 C7.01 3 6.02 3 5 3 C5 3.99 5 4.98 5 6 C3.02 6 1.04 6 -1 6 C-0.67 4.02 -0.34 2.04 0 0 Z " fill="#96BED4" transform="translate(101,122)"/>
<path d="M0 0 C1.2065625 1.2375 1.2065625 1.2375 2.4375 2.5 C5.83477623 5.33507922 8.47915519 5.55033905 12.80859375 5.30859375 C15.69799597 4.90170823 18.30466648 4.10577786 21 3 C20.05742045 5.57067149 19.27575276 6.81041998 17 8.375 C12.41770949 9.32964386 8.38054487 8.58822453 4 7 C1.375 4.5 1.375 4.5 0 2 C0 1.34 0 0.68 0 0 Z " fill="#1E82C3" transform="translate(67,82)"/>
<path d="M0 0 C2.5625 0.1875 2.5625 0.1875 4.5625 2.1875 C4.1875 4.8125 4.1875 4.8125 3.5625 7.1875 C1.56295254 7.23004356 -0.43791636 7.22830783 -2.4375 7.1875 C-3.4375 6.1875 -3.4375 6.1875 -3.5625 3.6875 C-3.39599509 0.35740177 -3.31519894 0.2550153 0 0 Z " fill="#767676" transform="translate(121.4375,80.8125)"/>
<path d="M0 0 C2.97 0 5.94 0 9 0 C9.33 0.99 9.66 1.98 10 3 C10.66 3.66 11.32 4.32 12 5 C7.71 5 3.42 5 -1 5 C-0.67 3.35 -0.34 1.7 0 0 Z " fill="#89B5CF" transform="translate(114,122)"/>
<path d="M0 0 C3.33333333 0 6.66666667 0 10 0 C10 1.65 10 3.3 10 5 C6.37 5 2.74 5 -1 5 C-0.67 3.35 -0.34 1.7 0 0 Z " fill="#75A9C8" transform="translate(64,122)"/>
<path d="M0 0 C2.625 0.375 2.625 0.375 5 1 C5.625 2.875 5.625 2.875 6 5 C4 7 4 7 1.375 7.125 C0.59125 7.08375 -0.1925 7.0425 -1 7 C-1.625 4.625 -1.625 4.625 -2 2 C-1.34 1.34 -0.68 0.68 0 0 Z " fill="#323232" transform="translate(114,46)"/>
<path d="M0 0 C3.69230769 0.69230769 3.69230769 0.69230769 5 2 C5.04063832 3.66617115 5.042721 5.33388095 5 7 C2.625 7.625 2.625 7.625 0 8 C-0.66 7.34 -1.32 6.68 -2 6 C-1.44444444 1.44444444 -1.44444444 1.44444444 0 0 Z " fill="#2F2F2F" transform="translate(41,34)"/>
<path d="M0 0 C0.99 0.66 1.98 1.32 3 2 C3.99 1.67 4.98 1.34 6 1 C7.4783226 3.95664519 7.06032783 6.74229737 7 10 C6.67 10 6.34 10 6 10 C5.67 8.35 5.34 6.7 5 5 C4.89042969 5.61488281 4.78085938 6.22976562 4.66796875 6.86328125 C4.50941406 7.67152344 4.35085937 8.47976562 4.1875 9.3125 C4.03667969 10.11300781 3.88585937 10.91351563 3.73046875 11.73828125 C2.92427764 14.23445587 1.97947998 15.32422106 0 17 C-0.66 16.67 -1.32 16.34 -2 16 C-1.51015625 15.608125 -1.0203125 15.21625 -0.515625 14.8125 C1.47803115 12.42833388 1.34130451 11.0678315 1.25 8 C1.23453125 7.13375 1.2190625 6.2675 1.203125 5.375 C1.0807181 2.85176221 1.0807181 2.85176221 0 0 Z " fill="#54A0D2" transform="translate(85,68)"/>
<path d="M0 0 C0.8971875 0.5259375 0.8971875 0.5259375 1.8125 1.0625 C-0.63910268 3.51410268 -1.7731401 3.67677733 -5.1875 4.0625 C-7.46790444 3.82991479 -9.74083106 3.5129381 -12 3.125 C-13.16144531 2.93035156 -14.32289062 2.73570313 -15.51953125 2.53515625 C-16.39996094 2.37917969 -17.28039062 2.22320312 -18.1875 2.0625 C-14.88607556 -0.13844963 -13.99380045 -0.14160344 -10.1875 0 C-6.6618911 0.12066816 -3.07558629 -1.31810841 0 0 Z " fill="#C2DDEA" transform="translate(85.1875,90.9375)"/>
<path d="M0 0 C-0.66 0.66 -1.32 1.32 -2 2 C-2.99 2 -3.98 2 -5 2 C-5 2.66 -5 3.32 -5 4 C-2.03 4.495 -2.03 4.495 1 5 C0.67 5.99 0.34 6.98 0 8 C-3.0625 9.1875 -3.0625 9.1875 -6 10 C-5.67 8.35 -5.34 6.7 -5 5 C-5.66 5 -6.32 5 -7 5 C-7.33 3.68 -7.66 2.36 -8 1 C-5.07175348 0.02391783 -3.04386724 -0.08226668 0 0 Z " fill="#3B3B3B" transform="translate(125,61)"/>
<path d="M0 0 C0.86625 0.2784375 0.86625 0.2784375 1.75 0.5625 C4.20692525 1.04023546 5.64397534 0.75729364 8 0 C8.33 1.65 8.66 3.3 9 5 C5.7 5 2.4 5 -1 5 C-0.67 3.35 -0.34 1.7 0 0 Z " fill="#74A8C7" transform="translate(76,122)"/>
<path d="M0 0 C0.82757813 0.46019531 1.65515625 0.92039062 2.5078125 1.39453125 C6.24807757 3.11404909 9.85433925 3.974534 13.875 4.6875 C14.56335938 4.81705078 15.25171875 4.94660156 15.9609375 5.08007812 C17.63914062 5.39474121 19.31937953 5.69851465 21 6 C21 6.33 21 6.66 21 7 C6.62790698 7.41860465 6.62790698 7.41860465 0 3 C0 2.01 0 1.02 0 0 Z " fill="#D5E8F2" transform="translate(57,96)"/>
<path d="M0 0 C0.33 0 0.66 0 1 0 C1 2.31 1 4.62 1 7 C0.34 7 -0.32 7 -1 7 C-1.33 6.34 -1.66 5.68 -2 5 C-2.33 6.32 -2.66 7.64 -3 9 C-3.66 9 -4.32 9 -5 9 C-8 4.61538462 -8 4.61538462 -8 2 C-6.02 1.67 -4.04 1.34 -2 1 C-1.67 1.66 -1.34 2.32 -1 3 C-0.67 2.01 -0.34 1.02 0 0 Z " fill="#363636" transform="translate(63,24)"/>
<path d="M0 0 C1.27230469 0.21462891 1.27230469 0.21462891 2.5703125 0.43359375 C6.00192112 1.00031727 9.43696464 1.5362701 12.875 2.0625 C14.02742188 2.23910156 15.17984375 2.41570312 16.3671875 2.59765625 C17.23601562 2.73042969 18.10484375 2.86320312 19 3 C15.03197852 5.2132742 11.47907727 5.57600418 7 5 C1.375 2.75 1.375 2.75 0 0 Z " fill="#3089C2" transform="translate(61,91)"/>
<path d="M0 0 C1.67542976 0.28604898 3.34385343 0.61781233 5 1 C4.67 3.64 4.34 6.28 4 9 C3.34 8.67 2.68 8.34 2 8 C2 7.01 2 6.02 2 5 C0.02 5.99 0.02 5.99 -2 7 C-1.125 1.125 -1.125 1.125 0 0 Z " fill="#505050" transform="translate(88,25)"/>
<path d="M0 0 C3.45101522 4.24740335 6.73279209 8.61105071 10 13 C9.01 13.33 8.02 13.66 7 14 C0 5.89473684 0 5.89473684 0 0 Z " fill="#348CC4" transform="translate(51,83)"/>
<path d="M0 0 C0.66 0 1.32 0 2 0 C1.34 1.65 0.68 3.3 0 5 C0.99 5.33 1.98 5.66 3 6 C-0.08809695 7.76462683 -1.23312136 8 -5 8 C-4.67 7.01 -4.34 6.02 -4 5 C-4.66 4.67 -5.32 4.34 -6 4 C-6 3.34 -6 2.68 -6 2 C-4.7934375 1.7834375 -4.7934375 1.7834375 -3.5625 1.5625 C-1.07896294 1.25864751 -1.07896294 1.25864751 0 0 Z " fill="#464646" transform="translate(29,84)"/>
<path d="M0 0 C0.66 0 1.32 0 2 0 C2 1.98 2 3.96 2 6 C-0.64 6 -3.28 6 -6 6 C-6 4.35 -6 2.7 -6 1 C-4.7934375 1.0309375 -4.7934375 1.0309375 -3.5625 1.0625 C-1.06645115 1.29633621 -1.06645115 1.29633621 0 0 Z " fill="#525252" transform="translate(28,77)"/>
<path d="M0 0 C2.5 0.1875 2.5 0.1875 5 1 C5.66 1.99 6.32 2.98 7 4 C9.19454681 4.57993699 9.19454681 4.57993699 11.625 4.6875 C12.44226563 4.75324219 13.25953125 4.81898437 14.1015625 4.88671875 C14.72804688 4.92410156 15.35453125 4.96148437 16 5 C14 7 14 7 10.75 7.4375 C5.86179878 6.86720986 4.57800807 5.25273461 1 2 C0.01 2 -0.98 2 -2 2 C-1.34 1.34 -0.68 0.68 0 0 Z " fill="#57A1D2" transform="translate(67,80)"/>
<path d="M0 0 C1.32 0 2.64 0 4 0 C4 0.66 4 1.32 4 2 C4.99 2.33 5.98 2.66 7 3 C6.01 3 5.02 3 4 3 C4 3.99 4 4.98 4 6 C4.66 6.33 5.32 6.66 6 7 C3.03 6.505 3.03 6.505 0 6 C-1.125 2.25 -1.125 2.25 0 0 Z " fill="#4A4A4A" transform="translate(26,54)"/>
<path d="M0 0 C2.31 0 4.62 0 7 0 C7 1.65 7 3.3 7 5 C6.01 4.67 5.02 4.34 4 4 C4 4.66 4 5.32 4 6 C2.68 6 1.36 6 0 6 C0 4.02 0 2.04 0 0 Z " fill="#86B3CE" transform="translate(55,122)"/>
<path d="M0 0 C1.37478516 0.01740234 1.37478516 0.01740234 2.77734375 0.03515625 C3.69644531 0.04417969 4.61554688 0.05320312 5.5625 0.0625 C6.27277344 0.07410156 6.98304687 0.08570312 7.71484375 0.09765625 C7.05484375 1.74765625 6.39484375 3.39765625 5.71484375 5.09765625 C4.39484375 3.77765625 3.07484375 2.45765625 1.71484375 1.09765625 C1.71484375 2.41765625 1.71484375 3.73765625 1.71484375 5.09765625 C0.39484375 5.09765625 -0.92515625 5.09765625 -2.28515625 5.09765625 C-2.84765625 3.16015625 -2.84765625 3.16015625 -3.28515625 1.09765625 C-2.28515625 0.09765625 -2.28515625 0.09765625 0 0 Z " fill="#73A7C5" transform="translate(89.28515625,121.90234375)"/>
<path d="M0 0 C0.66 0.33 1.32 0.66 2 1 C2.125 3.875 2.125 3.875 2 7 C0 9 0 9 -2.875 9.375 C-6.62568199 8.92491816 -7.66488517 7.87398748 -10 5 C-8.68 4.67 -7.36 4.34 -6 4 C-5.67 4.66 -5.34 5.32 -5 6 C-3.35 6 -1.7 6 0 6 C0 4.02 0 2.04 0 0 Z " fill="#B2D4EB" transform="translate(81,72)"/>
<path d="M0 0 C-0.33 2.64 -0.66 5.28 -1 8 C-1.66 8 -2.32 8 -3 8 C-3 7.01 -3 6.02 -3 5 C-4.32 4.67 -5.64 4.34 -7 4 C-2.25 0 -2.25 0 0 0 Z " fill="#424242" transform="translate(102,30)"/>
<path d="M0 0 C1.37562854 1.28965176 2.70766393 2.62689293 4 4 C4 4.66 4 5.32 4 6 C2.35 5.67 0.7 5.34 -1 5 C-0.34 6.32 0.32 7.64 1 9 C0.01 8.67 -0.98 8.34 -2 8 C-3.1875 4.9375 -3.1875 4.9375 -4 2 C-2.68 2.33 -1.36 2.66 0 3 C0 2.01 0 1.02 0 0 Z " fill="#353535" transform="translate(49,29)"/>
<path d="M0 0 C2.99324263 1.0975223 3.84610901 1.67682892 5.25 4.625 C5.4975 5.40875 5.745 6.1925 6 7 C3.03 6.505 3.03 6.505 0 6 C-0.33 6.66 -0.66 7.32 -1 8 C-0.67 5.36 -0.34 2.72 0 0 Z " fill="#414141" transform="translate(67,23)"/>
<path d="M0 0 C2.97 0.495 2.97 0.495 6 1 C6 1.99 6 2.98 6 4 C5.01 4.33 4.02 4.66 3 5 C3.66 5.66 4.32 6.32 5 7 C2.03 6.505 2.03 6.505 -1 6 C-1 5.01 -1 4.02 -1 3 C-0.01 2.67 0.98 2.34 2 2 C1.34 1.34 0.68 0.68 0 0 Z " fill="#2F2F2F" transform="translate(117,89)"/>
<path d="M0 0 C0.33 0 0.66 0 1 0 C1.33 4.62 1.66 9.24 2 14 C0.66666667 14 -0.66666667 14 -2 14 C-2 11.03 -2 8.06 -2 5 C-1.67 5 -1.34 5 -1 5 C-0.67 3.35 -0.34 1.7 0 0 Z " fill="#89BBD7" transform="translate(52,70)"/>
<path d="M0 0 C0 0.66 0 1.32 0 2 C-0.66 2 -1.32 2 -2 2 C-2 3.32 -2 4.64 -2 6 C-4.4375 5.1875 -4.4375 5.1875 -7 4 C-7.33 3.01 -7.66 2.02 -8 1 C-5.23735711 0.40267181 -2.83967231 0 0 0 Z " fill="#414141" transform="translate(31,62)"/>
<path d="M0 0 C0.33 0 0.66 0 1 0 C0.67 2.97 0.34 5.94 0 9 C0.78375 8.79375 1.5675 8.5875 2.375 8.375 C3.674375 8.189375 3.674375 8.189375 5 8 C5.66 8.66 6.32 9.32 7 10 C0.25 11.125 0.25 11.125 -2 10 C-1.33333333 6.66666667 -0.66666667 3.33333333 0 0 Z " fill="#ACD0E8" transform="translate(70,53)"/>
<path d="M0 0 C0.66 0 1.32 0 2 0 C2 0.99 2 1.98 2 3 C2.66 2.01 3.32 1.02 4 0 C4.66 0 5.32 0 6 0 C6 1.65 6 3.3 6 5 C3.03 5 0.06 5 -3 5 C-2.67 4.01 -2.34 3.02 -2 2 C-2 2.66 -2 3.32 -2 4 C-1.34 4 -0.68 4 0 4 C0 2.68 0 1.36 0 0 Z " fill="#689FC1" transform="translate(15,122)"/>
<path d="M0 0 C1.98 0 3.96 0 6 0 C5.34 2.31 4.68 4.62 4 7 C2.0625 6.6875 2.0625 6.6875 0 6 C-0.33 5.01 -0.66 4.02 -1 3 C-0.01 2.67 0.98 2.34 2 2 C1.34 1.34 0.68 0.68 0 0 Z " fill="#DDDDDD" transform="translate(82,25)"/>
<path d="M0 0 C1.98 0 3.96 0 6 0 C5.01 0.66 4.02 1.32 3 2 C3.33 4.31 3.66 6.62 4 9 C3.34 9 2.68 9 2 9 C2 8.34 2 7.68 2 7 C1.34 7 0.68 7 0 7 C-0.93423645 3.98968256 -1.04449911 3.13349732 0 0 Z " fill="#C7C7C7" transform="translate(72,22)"/>
<path d="M0 0 C0.66 0 1.32 0 2 0 C2 1.98 2 3.96 2 6 C1.34 6 0.68 6 0 6 C0 5.34 0 4.68 0 4 C-1.98 4 -3.96 4 -6 4 C-6 3.34 -6 2.68 -6 2 C-4.02 2 -2.04 2 0 2 C0 1.34 0 0.68 0 0 Z " fill="#4F4F4F" transform="translate(125,71)"/>
<path d="M0 0 C1.98 0 3.96 0 6 0 C6.33 1.65 6.66 3.3 7 5 C6.67 4.01 6.34 3.02 6 2 C5.34 2 4.68 2 4 2 C4 3.65 4 5.3 4 7 C3.34 7 2.68 7 2 7 C2 5.02 2 3.04 2 1 C1.34 0.67 0.68 0.34 0 0 Z " fill="#737373" transform="translate(73,23)"/>
<path d="M0 0 C0.99 0.33 1.98 0.66 3 1 C1.35 2.98 -0.3 4.96 -2 7 C-2.99 6.34 -3.98 5.68 -5 5 C-3.35 3.35 -1.7 1.7 0 0 Z " fill="#DEEDF4" transform="translate(89,92)"/>
<path d="M0 0 C-1.75 3.875 -1.75 3.875 -4 5 C-5.54613014 4.91348369 -7.08909387 4.75997364 -8.625 4.5625 C-9.85089844 4.40974609 -9.85089844 4.40974609 -11.1015625 4.25390625 C-12.04128906 4.12822266 -12.04128906 4.12822266 -13 4 C-13 3.67 -13 3.34 -13 3 C-12.37351562 2.86722656 -11.74703125 2.73445313 -11.1015625 2.59765625 C-10.28429687 2.42105469 -9.46703125 2.24445313 -8.625 2.0625 C-7.81289062 1.88847656 -7.00078125 1.71445313 -6.1640625 1.53515625 C-3.88723554 0.9721142 -2.3530537 0 0 0 Z " fill="#2887C5" transform="translate(88,85)"/>
<path d="M0 0 C0.33 0.99 0.66 1.98 1 3 C0.34 3 -0.32 3 -1 3 C-1.33 4.32 -1.66 5.64 -2 7 C-2 6.01 -2 5.02 -2 4 C-2.66 4 -3.32 4 -4 4 C-4.33 5.32 -4.66 6.64 -5 8 C-5 6.68 -5 5.36 -5 4 C-5.66 4 -6.32 4 -7 4 C-7 3.34 -7 2.68 -7 2 C-4.69 2 -2.38 2 0 2 C0 1.34 0 0.68 0 0 Z " fill="#E8E8E8" transform="translate(29,74)"/>
<path d="M0 0 C0.66 0 1.32 0 2 0 C3.4783226 2.95664519 3.06032783 5.74229737 3 9 C2.67 9 2.34 9 2 9 C1.67 7.35 1.34 5.7 1 4 C0.67 5.98 0.34 7.96 0 10 C-0.33 10 -0.66 10 -1 10 C-1.125 2.25 -1.125 2.25 0 0 Z " fill="#61A6D2" transform="translate(89,69)"/>
<path d="M0 0 C2.0625 0.4375 2.0625 0.4375 4 1 C3.67 1.99 3.34 2.98 3 4 C3 3.34 3 2.68 3 2 C2.34 2 1.68 2 1 2 C1.33 3.65 1.66 5.3 2 7 C0.68 7 -0.64 7 -2 7 C-1.34 6.34 -0.68 5.68 0 5 C-0.40929986 2.94603274 -0.40929986 2.94603274 -1 1 C-0.67 0.67 -0.34 0.34 0 0 Z " fill="#353535" transform="translate(105,34)"/>
<path d="M0 0 C0.99 0.33 1.98 0.66 3 1 C3.33 0.67 3.66 0.34 4 0 C4.99 0.33 5.98 0.66 7 1 C7 1.66 7 2.32 7 3 C5.02 3.99 5.02 3.99 3 5 C3 4.34 3 3.68 3 3 C2.01 3 1.02 3 0 3 C-0.33 3.66 -0.66 4.32 -1 5 C-0.67 3.35 -0.34 1.7 0 0 Z " fill="#5E99BD" transform="translate(106,122)"/>
<path d="M0 0 C2.31 0 4.62 0 7 0 C5.8125 2 5.8125 2 4 4 C1.3125 4.25 1.3125 4.25 -1 4 C-0.67 2.68 -0.34 1.36 0 0 Z " fill="#DADADA" transform="translate(23,83)"/>
<path d="M0 0 C-0.875 3.875 -0.875 3.875 -2 5 C-4.33297433 5.04092937 -6.66705225 5.04241723 -9 5 C-7.68 4.67 -6.36 4.34 -5 4 C-5 3.34 -5 2.68 -5 2 C-2 0 -2 0 0 0 Z " fill="#2383C1" transform="translate(79,64)"/>
<path d="M0 0 C0.66 0 1.32 0 2 0 C3.4783226 2.95664519 3.06032783 5.74229737 3 9 C1.68 8.67 0.36 8.34 -1 8 C-0.34 7.34 0.32 6.68 1 6 C0.67801034 2.90073181 0.67801034 2.90073181 0 0 Z " fill="#696969" transform="translate(31,49)"/>
<path d="M0 0 C0.33 0.66 0.66 1.32 1 2 C1.66 2 2.32 2 3 2 C3 3.32 3 4.64 3 6 C1.0625 5.6875 1.0625 5.6875 -1 5 C-1.33 4.01 -1.66 3.02 -2 2 C-1.34 1.34 -0.68 0.68 0 0 Z " fill="#E6F1F8" transform="translate(77,72)"/>
<path d="M0 0 C2.64 0.33 5.28 0.66 8 1 C8 1.66 8 2.32 8 3 C6.02 3.33 4.04 3.66 2 4 C1.34 2.68 0.68 1.36 0 0 Z " fill="#388FC9" transform="translate(66,65)"/>
<path d="M0 0 C0.99 0.33 1.98 0.66 3 1 C2.67 2.32 2.34 3.64 2 5 C0.68 4.67 -0.64 4.34 -2 4 C-1.34 2.68 -0.68 1.36 0 0 Z " fill="#D6D6D6" transform="translate(115,47)"/>
<path d="M0 0 C1.98 0.495 1.98 0.495 4 1 C3.67 2.32 3.34 3.64 3 5 C1.68 4.34 0.36 3.68 -1 3 C-0.67 2.01 -0.34 1.02 0 0 Z " fill="#D8D8D8" transform="translate(41,36)"/>
<path d="M0 0 C0.66 0 1.32 0 2 0 C1.34 1.65 0.68 3.3 0 5 C-2.97 4.505 -2.97 4.505 -6 4 C-6 3.34 -6 2.68 -6 2 C-4.7934375 1.7834375 -4.7934375 1.7834375 -3.5625 1.5625 C-1.07896294 1.25864751 -1.07896294 1.25864751 0 0 Z " fill="#545454" transform="translate(29,84)"/>
<path d="M0 0 C2.475 0.99 2.475 0.99 5 2 C4.67 2.99 4.34 3.98 4 5 C2.68 4.67 1.36 4.34 0 4 C0 2.68 0 1.36 0 0 Z " fill="#2B88C4" transform="translate(80,60)"/>
<path d="M0 0 C2.31 0 4.62 0 7 0 C7 0.66 7 1.32 7 2 C5.02 2.33 3.04 2.66 1 3 C0.67 2.01 0.34 1.02 0 0 Z " fill="#308AC5" transform="translate(78,102)"/>
<path d="M0 0 C3.96 1.98 3.96 1.98 8 4 C4.86650268 5.04449911 4.01031744 4.93423645 1 4 C0.67 2.68 0.34 1.36 0 0 Z " fill="#E0EEF3" transform="translate(57,96)"/>
<path d="M0 0 C-0.66 0.66 -1.32 1.32 -2 2 C-2.99 2 -3.98 2 -5 2 C-5.33 2.99 -5.66 3.98 -6 5 C-6.66 3.68 -7.32 2.36 -8 1 C-5.07175348 0.02391783 -3.04386724 -0.08226668 0 0 Z " fill="#565656" transform="translate(125,61)"/>
</svg>
